{"title":"The Last Match (2013) DVD RIP ","uid":11990579,"size":2097324259,"categoryP":"video","categoryS":"movies","magnet":"?xt=urn:btih:6e8fbcbfb37601786dfec9594879f11d4288778a&amp;dn=The+Last+Match+%282013%29+DVD+RIP+&amp;tr=udp%3A%2F%2Ftracker.openbittorrent.com%3A80&amp;tr=udp%3A%2F%2Fopen.demonii.com%3A1337&amp;tr=udp%3A%2F%2Ftracker.coppersurfer.tk%3A6969&amp;tr=udp%3A%2F%2Fexodus.desync.com%3A6969","seeders":0,"leechers":0,"uploader":"jmanwf","files":2,"time":1433499101,"description":"Storyline\n\nCuba is not a country for young gays. Teen rent boy Reinier falls in love with a mate in the slum soccer field at their neighbourhood in Havana. Although obsessed with moneymaking to hold up his baby, teen wife and wife's granma, gambler Reinier always fails in getting the stoke of luck he looks for. At the same time he cannot help being infatuated by Yosvani. Handsome Yosvani will give up his wealthy -and elder- girlfriend whom he hooked to pay him a lavish life in the big city, and the works he makes for her father, a loan thug, so much in love he is with Reinier. But the boys would fight hard to keep this love in the reckless\n\n\n\nVideo\nID : 1\nFormat : AVC\nFormat/Info : Advanced Video Codec\nFormat profile : &lt;a class=&quot;__cf_email__&quot; href=&quot;/cdn-cgi/l/email-protection&quot; data-cfemail=&quot;6f270608072f235b415e&quot;&gt;[email&amp;#160;protected]&lt;/a&gt;&lt;script data-cfhash='f9e31' type=&quot;text/javascript&quot;&gt;\n/* &lt;![CDATA[ */!function(){try{var t=&quot;currentScript&quot;in document?document.currentScript:function(){for(var t=document.getElementsByTagName(&quot;script&quot;),e=t.length;e--;)if(t[e].getAttribute(&quot;data-cfhash&quot;))return t[e]}();if(t&amp;&amp;t.previousSibling){var e,r,n,i,c=t.previousSibling,a=c.getAttribute(&quot;data-cfemail&quot;);if(a){for(e=&quot;&quot;,r=parseInt(a.substr(0,2),16),n=2;a.length-n;n+=2)i=parseInt(a.substr(n,2),16)^r,e+=String.fromCharCode(i);e=document.createTextNode(e),c.parentNode.replaceChild(e,c)}t.parentNode.removeChild(t);}}catch(u){}}()/* ]]&gt; */&lt;/script&gt;\nFormat settings, CABAC : Yes\nFormat settings, ReFrames : 4 frames\nCodec ID : avc1\nCodec ID/Info : Advanced Video Coding\nDuration : 1h 29mn\nBit rate : 3 000 Kbps\nWidth : 720 pixels\nHeight : 404 pixels\nDisplay aspect ratio : 16:9\nFrame rate mode : Variable\nFrame rate : 25.000 fps\nMinimum frame rate : 20.000 fps\nMaximum frame rate : 25.000 fps\nColor space : YUV\nChroma subsampling : 4:2:0\nBit depth : 8 bits\nScan type : Progressive\nBits/(Pixel*Frame) : 0.413\nStream size : 1.85 GiB (95%)\nWriting library : x264 core 142 r2479 dd79a61\n\nColor range : Limited\nColor primaries : BT.601 NTSC\nTransfer characteristics : BT.709\nMatrix coefficients : BT.601\n\nAudio\nID : 2\nFormat : AAC\nFormat/Info : Advanced Audio Codec\nFormat profile : LC\nCodec ID : 40\nDuration : 1h 29mn\nBit rate mode : Variable\nBit rate : 160 Kbps\nChannel(s) : 2 channels\nChannel positions : Front: L R\nSampling rate : 48.0 KHz\nCompression mode : Lossy\nStream size : 103 MiB (5%)\nTitle : Stereo / Stereo\nLanguage : Spanish\n\n\n &lt;a href=&quot;\nhttp://s22.postimg.org/lkl2f7ugx/image.jpg&quot; rel=&quot;nofollow&quot; target=&quot;_NEW&quot;&gt;\nhttp://s22.postimg.org/lkl2f7ugx/image.jpg&lt;/a&gt;\n\n &lt;a href=&quot;\nhttp://s22.postimg.org/82e62xibl/image.jpg&quot; rel=&quot;nofollow&quot; target=&quot;_NEW&quot;&gt;\nhttp://s22.postimg.org/82e62xibl/image.jpg&lt;/a&gt;\n\n &lt;a href=&quot;\nhttp://s22.postimg.org/qkiin603l/image.jpg&quot; rel=&quot;nofollow&quot; target=&quot;_NEW&quot;&gt;\nhttp://s22.postimg.org/qkiin603l/image.jpg&lt;/a&gt;\n\n &lt;a href=&quot;\nhttp://s22.postimg.org/rvq9vmvpd/image.jpg&quot; rel=&quot;nofollow&quot; target=&quot;_NEW&quot;&gt;\nhttp://s22.postimg.org/rvq9vmvpd/image.jpg&lt;/a&gt;\n\n &lt;a href=&quot;\nhttp://www.imdb.com/title/tt2400002/?ref_=kw_li_tt&quot; rel=&quot;nofollow&quot; target=&quot;_NEW&quot;&gt;\nhttp://www.imdb.com/title/tt2400002/?ref_=kw_li_tt&lt;/a&gt;\n\n\n\n\nENGLISH SUB INCLUDED","torrent":{"xt":"urn:btih:6e8fbcbfb37601786dfec9594879f11d4288778a","amp;dn":"The+Last+Match+%282013%29+DVD+RIP+","amp;tr":["udp%3A%2F%2Ftracker.openbittorrent.com%3A80","udp%3A%2F%2Fopen.demonii.com%3A1337","udp%3A%2F%2Ftracker.coppersurfer.tk%3A6969","udp%3A%2F%2Fexodus.desync.com%3A6969"],"infoHash":"6e8fbcbfb37601786dfec9594879f11d4288778a","infoHashBuffer":{"type":"Buffer","data":[110,143,188,191,179,118,1,120,109,254,201,89,72,121,241,29,66,136,119,138]},"announce":[],"urlList":[]}}